<svg xmlns="http://www.w3.org/2000/svg" width="22" height="22"><g transform="translate(-412 -85)"><circle data-name="Ellipse 219" cx="9" cy="9" r="9" transform="translate(412 88)" fill="#fff"/><path data-name="Path 3381" d="M430.627 99.094a.747.747 0 01.226-.247.535.535 0 01.312-.1h.085a2.65 2.65 0 001.944-.802A2.649 2.649 0 00434 96a2.649 2.649 0 00-.806-1.944 2.65 2.65 0 00-1.944-.806h-.15a.616.616 0 01-.279-.064.554.554 0 01-.215-.193.42.42 0 01-.032-.086.42.42 0 00-.032-.086.993.993 0 01-.032-.118.6.6 0 01-.01-.119.631.631 0 01.043-.236.572.572 0 01.129-.193l.043-.043a2.8 2.8 0 00.6-.892 2.688 2.688 0 00.215-1.063 2.636 2.636 0 00-.215-1.042 2.8 2.8 0 00-.6-.892 2.8 2.8 0 00-.892-.6 2.688 2.688 0 00-1.063-.215 2.636 2.636 0 00-1.042.215 2.8 2.8 0 00-.892.6l-.064.043a.572.572 0 01-.193.129.575.575 0 01-.215.043.783.783 0 01-.129-.011.381.381 0 01-.107-.032l-.018-.011a.044.044 0 00-.032-.011.548.548 0 01-.247-.215.553.553 0 01-.1-.3v-.107a2.65 2.65 0 00-.806-1.944 2.65 2.65 0 00-1.944-.806 2.65 2.65 0 00-1.944.806 2.65 2.65 0 00-.806 1.944v.174a.552.552 0 01-.064.269.581.581 0 01-.193.2.419.419 0 01-.086.032.42.42 0 00-.086.032.382.382 0 01-.107.032.783.783 0 01-.129.011.631.631 0 01-.236-.043.5.5 0 01-.172-.107l-.064-.064a2.657 2.657 0 00-.892-.591 2.811 2.811 0 00-1.063-.2 2.756 2.756 0 00-1.042.2 2.657 2.657 0 00-.892.591 2.657 2.657 0 00-.591.892 2.811 2.811 0 00-.2 1.063 2.73 2.73 0 00.2 1.053 2.542 2.542 0 00.612.881l.043.064a.572.572 0 01.129.193.575.575 0 01.043.215.783.783 0 01-.011.129.382.382 0 01-.032.107.168.168 0 00-.026.041.1.1 0 00-.011.043.642.642 0 01-.2.258.53.53 0 01-.333.107h-.068a2.65 2.65 0 00-1.944.806 2.65 2.65 0 00-.806 1.944 2.649 2.649 0 00.806 1.944 2.649 2.649 0 001.944.806h.15a.57.57 0 01.333.1.7.7 0 01.226.269v.023a.382.382 0 01.032.107.675.675 0 01.009.106.631.631 0 01-.043.236.572.572 0 01-.129.193l-.043.043a2.8 2.8 0 00-.6.892 2.688 2.688 0 00-.215 1.063 2.636 2.636 0 00.215 1.042 2.8 2.8 0 00.6.892 2.8 2.8 0 00.892.6 2.688 2.688 0 001.063.215 2.612 2.612 0 001.053-.215 2.834 2.834 0 00.881-.6l.064-.043a.391.391 0 01.174-.131.631.631 0 01.236-.043.6.6 0 01.118.011.993.993 0 01.118.032l.021.011a.1.1 0 00.043.011.591.591 0 01.279.215.544.544 0 01.107.322v.064a2.649 2.649 0 00.808 1.947 2.65 2.65 0 001.944.806 2.65 2.65 0 001.944-.806 2.65 2.65 0 00.806-1.944v-.15a.585.585 0 01.1-.322.533.533 0 01.264-.216v-.011q0-.011.021-.011a.383.383 0 01.1-.032.6.6 0 01.118-.011.575.575 0 01.215.043.572.572 0 01.193.129l.064.043a2.834 2.834 0 00.881.6 2.612 2.612 0 001.052.212 2.688 2.688 0 001.063-.21 2.8 2.8 0 00.892-.6 2.657 2.657 0 00.591-.89 2.756 2.756 0 00.2-1.042 2.811 2.811 0 00-.2-1.063 2.657 2.657 0 00-.59-.895l-.064-.043a.457.457 0 01-.118-.193.744.744 0 01-.032-.215.783.783 0 01.011-.129.382.382 0 01.032-.107v-.021s-.002-.009-.002-.023zm-1.676-.709l-.011.011-.011.011a2.9 2.9 0 00-.14.462 2.37 2.37 0 00-.054.5 2.362 2.362 0 00.183.913 2.583 2.583 0 00.5.784l.064.064a.972.972 0 01.2.3.852.852 0 01.075.344.828.828 0 01-.075.354 1.015 1.015 0 01-.2.29 1.014 1.014 0 01-.29.2.828.828 0 01-.354.075.828.828 0 01-.349-.068 1.014 1.014 0 01-.29-.2l-.064-.043v-.021a2.583 2.583 0 00-.784-.5 2.362 2.362 0 00-.913-.183 2.522 2.522 0 00-.516.054 2.347 2.347 0 00-.494.161h-.022a2.42 2.42 0 00-1.031.9 2.376 2.376 0 00-.387 1.307v.15a.892.892 0 01-.268.655.892.892 0 01-.655.269.867.867 0 01-.634-.269.892.892 0 01-.269-.655v-.086a2.4 2.4 0 00-.451-1.354 2.487 2.487 0 00-1.139-.885 3.007 3.007 0 00-.451-.14 2.224 2.224 0 00-.494-.054 2.362 2.362 0 00-.913.183 2.4 2.4 0 00-.784.526l-.064.043a1.014 1.014 0 01-.29.2.828.828 0 01-.354.075.828.828 0 01-.354-.075 1.014 1.014 0 01-.29-.2 1.014 1.014 0 01-.2-.29.828.828 0 01-.078-.349.852.852 0 01.075-.344.972.972 0 01.2-.3l.064-.064a2.583 2.583 0 00.5-.784 2.362 2.362 0 00.183-.913 2.37 2.37 0 00-.054-.5 2.4 2.4 0 00-.161-.483v-.031a2.4 2.4 0 00-.9-1.053 2.376 2.376 0 00-1.307-.384h-.15a.892.892 0 01-.655-.269.867.867 0 01-.269-.634.892.892 0 01.269-.655.892.892 0 01.655-.269h.107a2.4 2.4 0 001.354-.451 2.366 2.366 0 00.859-1.117 2.9 2.9 0 00.14-.462 2.272 2.272 0 00.054-.483 2.337 2.337 0 00-.183-.924 2.623 2.623 0 00-.5-.773v-.026l-.064-.043a.972.972 0 01-.2-.3.852.852 0 01-.075-.344.9.9 0 01.075-.365.972.972 0 01.2-.3.859.859 0 01.29-.193.946.946 0 01.354-.064.946.946 0 01.354.064.859.859 0 01.29.193l.064.064a2.4 2.4 0 00.784.526 2.362 2.362 0 00.913.183 2.028 2.028 0 00.419-.043 3.6 3.6 0 00.4-.107.406.406 0 00.129-.021.835.835 0 00.107-.043 2.463 2.463 0 001.063-.9 2.471 2.471 0 00.416-1.307v-.172a.867.867 0 01.269-.634.867.867 0 01.634-.269.892.892 0 01.655.269.867.867 0 01.269.634v.086a2.365 2.365 0 00.4 1.332 2.463 2.463 0 001.063.9h.016a1.664 1.664 0 00.462.15 2.941 2.941 0 00.5.043 2.49 2.49 0 00.913-.172 2.263 2.263 0 00.784-.516l.064-.064a.859.859 0 01.29-.193.946.946 0 01.354-.064.973.973 0 01.344.064.835.835 0 01.3.193.835.835 0 01.193.3.973.973 0 01.064.344.946.946 0 01-.064.354.858.858 0 01-.193.29l-.064.064a2.263 2.263 0 00-.516.784 2.548 2.548 0 00-.172.935 2.547 2.547 0 00.032.4 2.476 2.476 0 00.1.4.849.849 0 01.032.129.848.848 0 00.032.129 2.463 2.463 0 00.9 1.063 2.365 2.365 0 001.332.4h.15a.892.892 0 01.655.269.892.892 0 01.269.655.867.867 0 01-.269.634.892.892 0 01-.648.263h-.086a2.365 2.365 0 00-1.332.4 2.325 2.325 0 00-.881 1.06zM423 92.348a3.541 3.541 0 00-2.6 1.077 3.516 3.516 0 00-1.074 2.578A3.541 3.541 0 00420.4 98.6a3.541 3.541 0 002.6 1.074 3.541 3.541 0 002.6-1.074 3.541 3.541 0 001.074-2.6 3.516 3.516 0 00-1.074-2.575 3.541 3.541 0 00-2.6-1.077zm0 5.5a1.758 1.758 0 01-1.289-.537 1.783 1.783 0 01-.537-1.311 1.758 1.758 0 01.537-1.289 1.758 1.758 0 011.289-.537 1.758 1.758 0 011.289.537 1.758 1.758 0 01.537 1.289 1.783 1.783 0 01-.537 1.311 1.758 1.758 0 01-1.289.537z" fill="rgba(51,72,86,0.55)"/></g></svg>