<svg xmlns="http://www.w3.org/2000/svg" width="22" height="22" viewBox="0 0 22 22">
  <g id="btn-settings" transform="translate(-412 -85)">
    <circle id="Ellipse_219" data-name="Ellipse 219" cx="9" cy="9" r="9" transform="translate(412 88)" fill="#fff"/>
    <path id="Path_3381" data-name="Path 3381" d="M6.127-8.831a.747.747,0,0,1,.226-.247.535.535,0,0,1,.312-.1H6.75A2.65,2.65,0,0,0,8.694-9.98,2.649,2.649,0,0,0,9.5-11.925a2.649,2.649,0,0,0-.806-1.944,2.65,2.65,0,0,0-1.944-.806H6.6a.616.616,0,0,1-.279-.064.554.554,0,0,1-.215-.193.42.42,0,0,1-.032-.086.42.42,0,0,0-.032-.086.993.993,0,0,1-.032-.118A.6.6,0,0,1,6-15.341a.631.631,0,0,1,.043-.236.572.572,0,0,1,.129-.193l.043-.043a2.8,2.8,0,0,0,.6-.892,2.688,2.688,0,0,0,.215-1.063,2.636,2.636,0,0,0-.215-1.042,2.8,2.8,0,0,0-.6-.892,2.8,2.8,0,0,0-.892-.6,2.688,2.688,0,0,0-1.063-.215,2.636,2.636,0,0,0-1.042.215,2.8,2.8,0,0,0-.892.6l-.064.043a.572.572,0,0,1-.193.129.575.575,0,0,1-.215.043.783.783,0,0,1-.129-.011.381.381,0,0,1-.107-.032L1.6-19.541a.044.044,0,0,0-.032-.011.548.548,0,0,1-.247-.215.553.553,0,0,1-.1-.3v-.107a2.65,2.65,0,0,0-.806-1.944,2.65,2.65,0,0,0-1.944-.806,2.65,2.65,0,0,0-1.944.806,2.65,2.65,0,0,0-.806,1.944V-20a.552.552,0,0,1-.064.269.581.581,0,0,1-.193.2.419.419,0,0,1-.086.032.42.42,0,0,0-.086.032.382.382,0,0,1-.107.032.783.783,0,0,1-.129.011.631.631,0,0,1-.236-.043.5.5,0,0,1-.172-.107l-.064-.064a2.657,2.657,0,0,0-.892-.591,2.811,2.811,0,0,0-1.063-.2,2.756,2.756,0,0,0-1.042.2,2.657,2.657,0,0,0-.892.591,2.657,2.657,0,0,0-.591.892,2.811,2.811,0,0,0-.2,1.063,2.73,2.73,0,0,0,.2,1.053,2.542,2.542,0,0,0,.612.881l.043.064a.572.572,0,0,1,.129.193.575.575,0,0,1,.043.215.783.783,0,0,1-.011.129.382.382,0,0,1-.032.107A.168.168,0,0,0-9.138-15a.1.1,0,0,0-.011.043.642.642,0,0,1-.2.258.53.53,0,0,1-.333.107H-9.75a2.65,2.65,0,0,0-1.944.806,2.65,2.65,0,0,0-.806,1.944,2.649,2.649,0,0,0,.806,1.944,2.649,2.649,0,0,0,1.944.806h.15a.57.57,0,0,1,.333.1.7.7,0,0,1,.226.269V-8.7a.382.382,0,0,1,.032.107A.675.675,0,0,1-9-8.487a.631.631,0,0,1-.043.236.572.572,0,0,1-.129.193l-.043.043a2.8,2.8,0,0,0-.6.892,2.688,2.688,0,0,0-.215,1.063,2.636,2.636,0,0,0,.215,1.042,2.8,2.8,0,0,0,.6.892,2.8,2.8,0,0,0,.892.6,2.688,2.688,0,0,0,1.063.215,2.612,2.612,0,0,0,1.053-.215,2.834,2.834,0,0,0,.881-.6l.064-.043A.391.391,0,0,1-5.088-4.3a.631.631,0,0,1,.236-.043.6.6,0,0,1,.118.011.993.993,0,0,1,.118.032l.021.011a.1.1,0,0,0,.043.011.591.591,0,0,1,.279.215.544.544,0,0,1,.107.322v.064A2.649,2.649,0,0,0-3.358-1.73a2.65,2.65,0,0,0,1.944.806A2.65,2.65,0,0,0,.53-1.73a2.65,2.65,0,0,0,.806-1.944v-.15a.585.585,0,0,1,.1-.322A.533.533,0,0,1,1.7-4.362v-.011q0-.011.021-.011a.383.383,0,0,1,.1-.032.6.6,0,0,1,.118-.011.575.575,0,0,1,.215.043.572.572,0,0,1,.193.129l.064.043a2.834,2.834,0,0,0,.881.6A2.612,2.612,0,0,0,4.344-3.4,2.688,2.688,0,0,0,5.407-3.61a2.8,2.8,0,0,0,.892-.6A2.657,2.657,0,0,0,6.89-5.1a2.756,2.756,0,0,0,.2-1.042,2.811,2.811,0,0,0-.2-1.063A2.657,2.657,0,0,0,6.3-8.1l-.064-.043a.457.457,0,0,1-.118-.193.744.744,0,0,1-.032-.215.783.783,0,0,1,.011-.129.382.382,0,0,1,.032-.107q0-.021,0-.021S6.127-8.817,6.127-8.831ZM4.451-9.54l-.011.011-.011.011a2.9,2.9,0,0,0-.14.462,2.37,2.37,0,0,0-.054.5,2.362,2.362,0,0,0,.183.913,2.583,2.583,0,0,0,.5.784h0l.064.064a.972.972,0,0,1,.2.3.852.852,0,0,1,.075.344.828.828,0,0,1-.075.354,1.015,1.015,0,0,1-.2.29,1.014,1.014,0,0,1-.29.2.828.828,0,0,1-.354.075A.828.828,0,0,1,3.989-5.3a1.014,1.014,0,0,1-.29-.2l-.064-.043v-.021a2.583,2.583,0,0,0-.784-.5,2.362,2.362,0,0,0-.913-.183,2.522,2.522,0,0,0-.516.054,2.347,2.347,0,0,0-.494.161H.906a2.42,2.42,0,0,0-1.031.9A2.376,2.376,0,0,0-.512-3.825v.15A.892.892,0,0,1-.78-3.02a.892.892,0,0,1-.655.269.867.867,0,0,1-.634-.269.892.892,0,0,1-.269-.655v-.086h0a2.4,2.4,0,0,0-.451-1.354A2.487,2.487,0,0,0-3.928-6a3.007,3.007,0,0,0-.451-.14,2.224,2.224,0,0,0-.494-.054,2.362,2.362,0,0,0-.913.183,2.4,2.4,0,0,0-.784.526h0l-.064.043a1.014,1.014,0,0,1-.29.2.828.828,0,0,1-.354.075.828.828,0,0,1-.354-.075,1.014,1.014,0,0,1-.29-.2,1.014,1.014,0,0,1-.2-.29A.828.828,0,0,1-8.2-6.081a.852.852,0,0,1,.075-.344.972.972,0,0,1,.2-.3l.064-.064a2.583,2.583,0,0,0,.5-.784,2.362,2.362,0,0,0,.183-.913,2.37,2.37,0,0,0-.054-.5,2.4,2.4,0,0,0-.161-.483V-9.5h0a2.4,2.4,0,0,0-.9-1.053A2.376,2.376,0,0,0-9.6-10.937h-.15a.892.892,0,0,1-.655-.269.867.867,0,0,1-.269-.634.892.892,0,0,1,.269-.655.892.892,0,0,1,.655-.269h.107a2.4,2.4,0,0,0,1.354-.451,2.366,2.366,0,0,0,.859-1.117,2.9,2.9,0,0,0,.14-.462,2.272,2.272,0,0,0,.054-.483,2.337,2.337,0,0,0-.183-.924,2.623,2.623,0,0,0-.5-.773V-17l-.064-.043a.972.972,0,0,1-.2-.3.852.852,0,0,1-.075-.344.9.9,0,0,1,.075-.365.972.972,0,0,1,.2-.3.859.859,0,0,1,.29-.193.946.946,0,0,1,.354-.064.946.946,0,0,1,.354.064.859.859,0,0,1,.29.193l.064.064h0a2.4,2.4,0,0,0,.784.526,2.362,2.362,0,0,0,.913.183,2.028,2.028,0,0,0,.419-.043,3.6,3.6,0,0,0,.4-.107.406.406,0,0,0,.129-.021.835.835,0,0,0,.107-.043,2.463,2.463,0,0,0,1.063-.9A2.471,2.471,0,0,0-2.4-20v-.172a.867.867,0,0,1,.269-.634.867.867,0,0,1,.634-.269.892.892,0,0,1,.655.269.867.867,0,0,1,.269.634v.086a2.365,2.365,0,0,0,.4,1.332,2.463,2.463,0,0,0,1.063.9H.906a1.664,1.664,0,0,0,.462.15,2.941,2.941,0,0,0,.5.043,2.49,2.49,0,0,0,.913-.172,2.263,2.263,0,0,0,.784-.516h0l.064-.064a.859.859,0,0,1,.29-.193.946.946,0,0,1,.354-.064.973.973,0,0,1,.344.064.835.835,0,0,1,.3.193.835.835,0,0,1,.193.3.973.973,0,0,1,.064.344.946.946,0,0,1-.064.354.858.858,0,0,1-.193.29l-.064.064h0a2.263,2.263,0,0,0-.516.784,2.548,2.548,0,0,0-.172.935,2.547,2.547,0,0,0,.032.4,2.476,2.476,0,0,0,.1.4.849.849,0,0,1,.032.129.848.848,0,0,0,.032.129,2.463,2.463,0,0,0,.9,1.063,2.365,2.365,0,0,0,1.332.4h.15a.892.892,0,0,1,.655.269.892.892,0,0,1,.269.655.867.867,0,0,1-.269.634A.892.892,0,0,1,6.75-11H6.664a2.365,2.365,0,0,0-1.332.4A2.325,2.325,0,0,0,4.451-9.54ZM-1.5-15.577A3.541,3.541,0,0,0-4.1-14.5a3.516,3.516,0,0,0-1.074,2.578A3.541,3.541,0,0,0-4.1-9.325,3.541,3.541,0,0,0-1.5-8.251,3.541,3.541,0,0,0,1.1-9.325a3.541,3.541,0,0,0,1.074-2.6A3.516,3.516,0,0,0,1.1-14.5,3.541,3.541,0,0,0-1.5-15.577Zm0,5.5a1.758,1.758,0,0,1-1.289-.537,1.783,1.783,0,0,1-.537-1.311,1.758,1.758,0,0,1,.537-1.289A1.758,1.758,0,0,1-1.5-13.751a1.758,1.758,0,0,1,1.289.537,1.758,1.758,0,0,1,.537,1.289,1.783,1.783,0,0,1-.537,1.311A1.758,1.758,0,0,1-1.5-10.077Z" transform="translate(424.5 107.925)" fill="rgba(51,72,86,0.55)"/>
  </g>
</svg>
