<svg xmlns="http://www.w3.org/2000/svg" width="21.26" height="20.389"><path data-name="Union 1" d="M15.301 20.186l-4.648-2.445-4.7 2.444a1.738 1.738 0 01-1.844-.134 1.737 1.737 0 01-.7-1.713l.887-5.175-3.775-3.71a1.74 1.74 0 01-.443-1.8 1.74 1.74 0 011.414-1.19l5.2-.755L9.055.971a1.741 1.741 0 011.57-.976 1.741 1.741 0 011.57.976l2.324 4.708 5.234.784a1.74 1.74 0 011.414 1.19 1.742 1.742 0 01-.443 1.8l-3.76 3.665.873 5.221a1.741 1.741 0 01-.7 1.713 1.763 1.763 0 01-1.03.337 1.755 1.755 0 01-.806-.203zm-9.37-8.436a1.6 1.6 0 01.46 1.412l-.808 4.719.258.444.012-.005-.2-.388 4.236-2.228a1.6 1.6 0 011.486 0l4.238 2.228.067-.049-.81-4.718a1.6 1.6 0 01.459-1.413l3.428-3.342-.025-.08-4.737-.689a1.6 1.6 0 01-1.2-.873l-2.119-4.293a.04.04 0 00-.042-.024l-2.16 4.317a1.6 1.6 0 01-1.2.873l-4.738.689-.334.374.011.011.3-.3z" fill="rgba(51,72,86,0.55)"/></svg>